<svg width="16" height="22" viewBox="0 0 16 22" fill="none" xmlns="http://www.w3.org/2000/svg">
<path d="M11 12.09C10.47 12.18 9.97 12.34 9.5 12.55V5H11V12.09ZM5.5 20.5C3.29 20.5 1.5 18.71 1.5 16.5V4C1.5 2.62 2.62 1.5 4 1.5C5.38 1.5 6.5 2.62 6.5 4V14.5C6.5 15.05 6.05 15.5 5.5 15.5C4.95 15.5 4.5 15.05 4.5 14.5V5H3V14.5C3 15.88 4.12 17 5.5 17C5.71 17 5.91 16.97 6.1 16.92C6.35 15.58 7.03 14.41 8 13.54V4C8 1.79 6.21 0 4 0C1.79 0 0 1.79 0 4V16.5C0 19.54 2.46 22 5.5 22C6.13 22 6.73 21.89 7.29 21.7C6.97 21.29 6.7 20.84 6.5 20.36C6.17 20.44 5.84 20.5 5.5 20.5ZM13 17V14H11V17H8V19H11V22H13V19H16V17H13Z" fill="#777E91"/>
</svg>
