<svg width="6" height="6" viewBox="0 0 6 6" fill="none" xmlns="http://www.w3.org/2000/svg">
<path d="M3 4.5C3.4125 4.5 3.75 4.8375 3.75 5.25C3.75 5.6625 3.4125 6 3 6C2.5875 6 2.25 5.6625 2.25 5.25C2.25 4.8375 2.5875 4.5 3 4.5ZM3 2.25C3.4125 2.25 3.75 2.5875 3.75 3C3.75 3.4125 3.4125 3.75 3 3.75C2.5875 3.75 2.25 3.4125 2.25 3C2.25 2.5875 2.5875 2.25 3 2.25ZM3 0C3.4125 0 3.75 0.3375 3.75 0.75C3.75 1.1625 3.4125 1.5 3 1.5C2.5875 1.5 2.25 1.1625 2.25 0.75C2.25 0.3375 2.5875 0 3 0ZM0.75 4.5C1.1625 4.5 1.5 4.8375 1.5 5.25C1.5 5.6625 1.1625 6 0.75 6C0.3375 6 0 5.6625 0 5.25C0 4.8375 0.3375 4.5 0.75 4.5ZM0.75 2.25C1.1625 2.25 1.5 2.5875 1.5 3C1.5 3.4125 1.1625 3.75 0.75 3.75C0.3375 3.75 0 3.4125 0 3C0 2.5875 0.3375 2.25 0.75 2.25ZM0.75 0C1.1625 0 1.5 0.3375 1.5 0.75C1.5 1.1625 1.1625 1.5 0.75 1.5C0.3375 1.5 0 1.1625 0 0.75C0 0.3375 0.3375 0 0.75 0ZM5.25 4.5C5.6625 4.5 6 4.8375 6 5.25C6 5.6625 5.6625 6 5.25 6C4.8375 6 4.5 5.6625 4.5 5.25C4.5 4.8375 4.8375 4.5 5.25 4.5ZM5.25 2.25C5.6625 2.25 6 2.5875 6 3C6 3.4125 5.6625 3.75 5.25 3.75C4.8375 3.75 4.5 3.4125 4.5 3C4.5 2.5875 4.8375 2.25 5.25 2.25ZM5.25 0C5.6625 0 6 0.3375 6 0.75C6 1.1625 5.6625 1.5 5.25 1.5C4.8375 1.5 4.5 1.1625 4.5 0.75C4.5 0.3375 4.8375 0 5.25 0Z" fill="black"/>
</svg>
