<svg width="20" height="20" viewBox="0 0 20 20" fill="none" xmlns="http://www.w3.org/2000/svg">
<path d="M17.5 15C17.37 15 17.24 15 17.11 15.04L15.5 11.79C15.95 11.34 16.25 10.71 16.25 10C16.25 8.62 15.13 7.5 13.75 7.5C13.62 7.5 13.5 7.5 13.36 7.54L11.73 4.29C12.21 3.84 12.5 3.21 12.5 2.5C12.5 1.12 11.38 0 10 0C8.62 0 7.5 1.12 7.5 2.5C7.5 3.21 7.79 3.84 8.26 4.29L6.64 7.54C6.5 7.5 6.38 7.5 6.25 7.5C4.87 7.5 3.75 8.62 3.75 10C3.75 10.71 4.05 11.34 4.5 11.79L2.89 15.04C2.76 15 2.63 15 2.5 15C1.12 15 0 16.12 0 17.5C0 18.88 1.12 20 2.5 20C3.88 20 5 18.88 5 17.5C5 16.8 4.71 16.16 4.24 15.71L5.86 12.46C6 12.5 6.12 12.5 6.25 12.5C6.38 12.5 6.5 12.5 6.64 12.46L8.27 15.71C7.8 16.16 7.5 16.8 7.5 17.5C7.5 18.88 8.62 20 10 20C11.38 20 12.5 18.88 12.5 17.5C12.5 16.12 11.38 15 10 15C9.87 15 9.74 15 9.61 15.04L8 11.79C8.46 11.34 8.75 10.71 8.75 10C8.75 9.29 8.46 8.66 8 8.21L9.61 4.96C9.74 5 9.87 5 10 5C10.13 5 10.26 5 10.39 4.96L12 8.21C11.55 8.66 11.25 9.3 11.25 10C11.25 11.38 12.37 12.5 13.75 12.5C13.88 12.5 14 12.5 14.14 12.46L15.77 15.71C15.3 16.16 15 16.8 15 17.5C15 18.88 16.12 20 17.5 20C18.88 20 20 18.88 20 17.5C20 16.12 18.88 15 17.5 15Z" fill="#F1CF2B"/>
</svg>
