<?xml version="1.0" encoding="UTF-8"?>
<svg id="Capa_2" data-name="Capa 2" xmlns="http://www.w3.org/2000/svg" viewBox="0 0 1715.95 379.61">
  <defs>
    <style>
      .cls-1 {
        fill: #fff;
      }

      .cls-2 {
        fill: #2c1c47;
      }

      .cls-3 {
        fill: #ffd600;
      }

      .cls-4 {
        fill: none;
      }

      .cls-5 {
        fill: #fdd500;
      }
    </style>
  </defs>
  <g id="Capa_1-2" data-name="Capa 1">
    <g>
      <g>
        <path class="cls-2" d="m1665.06,180.02c0,15.06-5.87,28.81-15.5,38.99-1.75,1.75-3.56,3.44-5.44,5-4.13,3.37-8.75,6.12-13.69,8.19-6.75,2.87-14.18,4.44-22,4.44-31.31,0-56.61-25.31-56.61-56.61,0-14.5,5.44-27.81,14.5-37.87,3.25-3.56,6.94-6.75,11-9.5,2.5-1.62,5.06-3.06,7.81-4.25,7.12-3.19,15-5,23.31-5,31.31,0,56.61,25.31,56.61,56.61Z"/>
        <path class="cls-4" d="m1664.85,265.85l-12.65-15.19,9.16-7.47-4.07-4.57c-.82.67-2.13,1.78-3.25,2.73-2.29,1.94-3.73,3.15-4.22,3.48-.81.56-1.76,1.19-2.69,1.67-.68.45-1.41.88-2.25,1.34-.03.01-.06.03-.08.04l-.08.08-.19.08c-.26.12-.55.28-.86.45-.27.16-.55.31-.85.46l-.04.02c-.31.14-.62.3-.94.47-.34.18-.68.36-1.04.52-2.04.96-4.18,1.85-6.54,2.73-1.11.43-2.26.88-3.48,1.26l-.17.05h-.1c-.05.01-.12.03-.2.04-1.47.51-2.9.92-4.25,1.21-.15.07-.37.15-.64.17-.93.23-2.01.48-3.09.62-.04.01-.09.03-.14.04-.34.13-.64.2-1,.27-1.1.18-2.24.37-3.39.5-.52.1-1.05.16-1.56.22-.51.06-.99.12-1.46.21h-.07s-1.1.08-1.1.08c-2.54.22-4.96.33-7.2.33-.49,0-.99,0-1.51-.02-2.43-.12-4.94-.25-7.49-.57-2.5-.24-5.15-.67-7.89-1.27-2.92-.67-5.15-1.3-7.22-2.03-1.47-.44-2.56-.82-3.63-1.27-2.4-.88-4.76-1.91-7-3.03-2.43-1.15-4.71-2.44-6.75-3.82-2.86-1.81-5.46-3.65-7.72-5.44-.94-.73-1.73-1.47-2.51-2.18l-.03-.03s-.08-.07-.12-.1c-.09-.07-.17-.14-.25-.21l-.28-.21-.92-.98c-.84-.78-1.68-1.66-2.55-2.67h-.1l-.37-.43c-.79-.91-1.61-1.86-2.36-2.86-1.44-1.62-2.85-3.56-4.08-5.61-4.17-6.36-7.41-13.3-9.61-20.61-.06-.19-.14-.43-.17-.72-.57-1.85-.96-3.42-1.24-4.91-.38-1.73-.7-3.43-1-5.08l-.02-.1v-.1s0-.12,0-.14l-.04-.11v-.12c-.06-.39-.11-.77-.16-1.16-.15-1.16-.31-2.35-.36-3.55-.13-.85-.19-1.69-.19-2.58-.06-1.35-.12-2.75-.12-4.15s.06-2.74.12-4.03c0-.84.06-1.67.13-2.42.13-2.11.45-4.17.76-6.13.13-1.06.33-2.13.51-3.07v-.08s.04-.07.04-.07c.02-.07.05-.14.07-.21v-.06l.03-.12c.13-.57.25-1.12.38-1.67.12-.54.25-1.09.37-1.65v-.06s.03-.06.03-.06c.03-.08.05-.17.08-.26.03-.12.07-.23.1-.33.16-.59.33-1.16.49-1.73.15-.51.29-1.03.45-1.58.34-1.12.74-2.42,1.28-3.71.8-2.21,1.76-4.52,2.96-7.05.55-1.31,1.14-2.44,1.78-3.45.48-1.08,1.07-2.1,1.76-3.04.03-.05.05-.1.08-.14.06-.11.13-.25.21-.38,1.23-1.94,2.59-4.02,4.16-6.11.84-1.22,1.59-2.18,2.38-3.02,1.61-1.94,3.25-3.75,4.86-5.36,1.17-1.17,2.73-2.7,4.49-4.18.42-.38.83-.74,1.27-1.09l-3.19-4.06-3.59-5.17.76-.67c.56-.49,6.87-4.77,9.5-6.51l-4.85-6.66c-2.41,1.62-8.79,6.11-9.59,6.81l-.87.77-3.37-4.02-3.13-4.05s-.12.11-.12.11l-.05.04c-2.83,2.23-5.49,4.63-8.15,7.35-1.23,1.23-2.4,2.46-3.58,3.77-5.95,6.57-11.06,13.77-15.22,21.4-1.22,2.31-2.47,4.7-3.53,7.13-.57,1.21-1.03,2.27-1.41,3.26l-.04.11c-.53,1.31-1.08,2.66-1.57,3.98-.54,1.44-1.07,3.01-1.73,5.08-.56,1.73-.99,3.48-1.43,5.21-.5,1.74-.88,3.54-1.23,5.25-.31,1.38-.55,2.72-.73,4.08v.07c-.26,1.31-.44,2.53-.56,3.71l-.19,1.33-.04.31c-.17,1.51-.34,2.93-.39,4.41v.04s0,.04,0,.04c-.06.55-.12,1.13-.12,1.62v.07c-.13,1.97-.19,3.96-.19,5.93v.31c0,1.66.07,3.45.12,4.88.07,1.33.13,2.43.25,3.63v.05c.14,2.21.34,4.16.62,5.95v.04c.12.96.25,1.99.44,3.07.24,1.4.5,2.85.8,4.33l.09.43c.33,1.57.68,3.19,1.12,4.74.06.15.09.28.1.38h0s.02.05.02.05l.03.13c.38,1.66.82,3.19,1.34,4.7l.02.05c.55,1.85,1.11,3.55,1.66,5.05l.07.19v.12l.02.04.21.5c.09.22.17.44.26.66.27.69.52,1.35.86,1.95l.56.99-.55.31c3.62,8.43,8.41,16.49,14.25,23.98l2,2.38c1.2,1.5,2.52,2.94,3.79,4.34l.08.09c1.09,1.15,2.22,2.35,3.35,3.41,1.32,1.32,2.45,2.37,3.58,3.33.28.24.57.49.86.73.3.25.61.51.88.75.41.35.83.65,1.23.94l.05.04c6.83,5.45,14.13,9.96,21.7,13.41l.04.02c1.27.64,2.67,1.25,4.16,1.83h.03s.03.03.03.03c1.24.58,2.58,1.07,3.89,1.55.49.18.97.36,1.45.54l4.97,1.66c.28.06.6.14.93.29.63.19,1.31.34,1.97.49l.4.09c1.92.48,5.12,1.21,7.26,1.68l.46.09c.76.15,1.47.3,2.17.4h.04s.04.01.04.01c1.59.35,2.94.56,4.23.67h.06c1.72.24,3.57.41,5.36.59l.38.04c1.54.11,3.45.25,5.29.25.25,0,.66,0,1.2.06.39,0,.83,0,1.29,0,10.26,0,20.98-1.52,30.98-4.4,10.2-3.07,19.86-7.5,28.71-13.18,5.39-3.47,9.58-6.8,12.36-9.19l-3.22-3.48-10.29,8.54Z"/>
        <path class="cls-5" d="m1715.92,177.13v-.04c0-.53,0-1.12-.06-1.62v-.06s0-.06,0-.06c0-1.76-.1-3.68-.31-5.89v-.05s0-.32,0-.32c-.08-1.07-.22-2.19-.36-3.27-.07-.52-.13-1.04-.19-1.55-.07-.42-.12-.84-.18-1.26-.1-.75-.21-1.52-.37-2.3l-.02-.09v-.11s-.04-.15-.07-.23l-.03-.1h0c-.15-1.11-.33-2.22-.56-3.32l-.43-2.11c-.07-.28-.13-.55-.19-.82-.17-.74-.33-1.43-.56-2.22-.4-1.53-.77-2.89-1.18-4.28l-.14-.47c-.45-1.52-.91-3.08-1.52-4.63l-.02-.06c-.54-1.63-1.23-3.31-1.89-4.93l-.03-.08c-.59-1.54-1.32-3.25-2.1-4.93l-.08-.17-.04-.04-.26-.61-.18-.35c-.36-.72-.73-1.47-1.16-2.1l-.64-.92.54-.39c-4.29-8.04-9.75-15.64-16.22-22.61l-2.24-2.24c-.13-.13-.29-.29-.38-.35l-.08-.05-.07-.07c-6.31-6-13.2-11.12-20.46-15.21l-.04-.02c-1.19-.74-2.53-1.48-3.97-2.2l-.04-.02c-1.64-.91-3.46-1.73-5.25-2.53-1.66-.8-3.37-1.51-4.81-2.1l-.04-.02-.04-.02c-.09-.04-.18-.08-.27-.11-.14-.05-.28-.11-.43-.18-.8-.31-1.56-.6-2.33-.84-.99-.32-2.33-.76-3.66-1.19-1.26-.41-2.52-.82-3.44-1.12-2.47-.74-4.58-1.31-6.82-1.72h-.05c-1.8-.43-3.7-.8-5.68-1.12-1.82-.31-3.52-.55-5.19-.73-.22,0-.46-.04-.75-.07-.14-.02-.31-.04-.49-.06-.55-.06-1.3-.12-2.03-.18-2.82-.23-5.74-.35-8.66-.35-7.3,0-14.64.72-21.83,2.14-7.03,1.41-17.89,4.39-29.75,10.64-5.71,3.01-10.15,5.96-13.09,8.09l2.93,3.73,2.93-2.03c4.45-3.08,10.56-1.98,13.66,2.46h0c3.14,4.49,2,10.68-2.52,13.76l-1.56,1.06,3.66,4.94c.88-.61,2.28-1.6,3.47-2.45,2.49-1.78,4.03-2.87,4.5-3.12.76-.43,1.76-.98,2.81-1.41.67-.38,1.44-.76,2.34-1.14.1-.05.19-.08.27-.11l.05-.02c.19-.08.39-.18.59-.27.41-.19.82-.38,1.29-.57.33-.12.66-.25.99-.39.36-.15.72-.29,1.07-.42,2.07-.77,4.27-1.48,6.68-2.14,1.39-.44,2.52-.74,3.68-.97l.11-.02h.02c.05-.01.12-.03.2-.05,1.78-.43,3.17-.69,4.48-.86.23-.07.44-.09.61-.09.97-.18,1.99-.3,3.05-.37.07-.02.17-.05.28-.06l.19-.03c.25-.05.52-.09.83-.1,1.13-.12,2.26-.19,3.37-.25.52-.03,1.06-.05,1.6-.07.5-.02,1.01-.03,1.53-.06h.03s1.09,0,1.09,0c3.16,0,6,.15,8.71.45,2.76.35,5.18.75,7.38,1.2,2.84.55,5.38,1.2,7.75,1.97,2.8.89,5.04,1.71,7.06,2.61.26.12.53.24.8.35.88.39,1.8.79,2.65,1.21,2.35,1.08,4.58,2.29,6.79,3.68,2.22,1.3,4.36,2.76,6.37,4.33,2.17,1.69,4.47,3.53,6.6,5.58.2.15.35.32.44.43.02.03.04.05.07.07,1.51,1.51,3,3.2,4.55,5.18.1.11.17.21.24.3h0s.05.07.05.07c4.61,5.97,8.34,12.52,11.09,19.46l.02.06s.02.06.04.09c.06.14.14.32.19.56.67,1.7,1.2,3.22,1.66,4.76.42,1.36.79,2.76,1.15,4.11l.21.79c.06.16.09.3.11.42,0,.03,0,.06.02.09l.02.07v.07c.17.79.33,1.57.49,2.35.15.75.31,1.51.45,2.24.2.87.33,1.73.4,2.63.19,1.3.37,2.69.5,4.08.09.95.12,1.86.14,2.74.01.44.03.87.05,1.27.07.86.07,1.71.07,2.46,0,2.09-.06,4.17-.19,6.2v.14c-.07.95-.13,1.94-.26,2.93v.1s-.05.11-.05.11c0,.03,0,.1,0,.15v.18c-.1.53-.17,1.04-.24,1.54-.08.59-.16,1.17-.26,1.77-.01.27-.08.54-.14.81-.09.51-.18,1.01-.28,1.51-.11.58-.23,1.18-.33,1.8v.05c-.28,1.34-.6,2.61-.97,3.79-.7,2.53-1.53,4.95-2.34,7.32-.43,1.17-.88,2.38-1.51,3.55-.37,1.2-.93,2.28-1.44,3.18l-.04.07s-.07.12-.11.23c-.04.09-.08.18-.15.31-1.11,2.1-2.26,4.28-3.59,6.43-.62,1.06-1.27,2.16-2.12,3.21-1.2,1.76-2.66,3.69-4.35,5.74-1.15,1.37-2.54,2.98-4.13,4.57-.41.41-.8.8-1.2,1.19l3.5,3.76,4.02,4.84-.65.73c-.35.4-3.11,2.66-5.62,4.69-1.79,1.45-2.02,4.09-.51,5.83h0c1.46,1.68,3.99,1.88,5.69.46,2.52-2.11,5.38-4.55,5.88-5.08l.81-.86,3.72,3.8,3.47,3.73c.05-.05.1-.1.16-.15,2.66-2.53,5.1-5.16,7.47-8.02,1.04-1.27,2.14-2.62,3.22-4.09,5.44-7.15,9.93-14.76,13.35-22.61l.5-1.22c.83-2.02,1.69-4.11,2.41-6.15.11-.33.23-.67.34-1.01.27-.79.55-1.61.77-2.4l.25-.8c.36-1.16.69-2.26,1-3.43.56-1.96.96-3.56,1.29-5.17.38-1.84.7-3.65,1-5.34.3-1.67.55-3.45.74-5.29v-.04s.01-.04.01-.04c.22-1.27.36-2.57.42-4.1v-.06c.13-1.31.19-2.5.19-3.77v-.05l.13-1.31c0-.53,0-1.05.01-1.58.01-1.07.03-2.09-.01-3.14Z"/>
        <path class="cls-5" d="m1658.57,258.3h0c-3.5-4.21-2.9-10.46,1.34-13.92l1.46-1.19-4.07-4.57c-.82.67-2.13,1.78-3.25,2.73-2.29,1.94-3.73,3.15-4.22,3.48-.81.56-1.76,1.19-2.69,1.67-.68.45-1.41.88-2.25,1.34-.03.01-.06.03-.08.04l-.08.08-.19.08c-.26.12-.55.28-.86.45-.27.16-.55.31-.85.46l-.04.02c-.31.14-.62.3-.94.47-.34.18-.68.36-1.04.52-2.04.96-4.18,1.85-6.54,2.73-1.11.43-2.26.88-3.48,1.26l-.17.05h-.1c-.05.01-.12.03-.2.04-1.47.51-2.9.92-4.25,1.21-.15.07-.37.15-.64.17-.93.23-2.01.48-3.09.62-.04.01-.09.03-.14.04-.34.13-.64.2-1,.27-1.1.18-2.24.37-3.39.5-.52.1-1.05.16-1.56.22-.51.06-.99.12-1.46.21h-.07s-1.1.08-1.1.08c-2.54.22-4.96.33-7.2.33-.49,0-.99,0-1.51-.02-2.43-.12-4.94-.25-7.49-.57-2.5-.24-5.15-.67-7.89-1.27-2.92-.67-5.15-1.3-7.22-2.03-1.47-.44-2.56-.82-3.63-1.27-2.4-.88-4.76-1.91-7-3.03-2.43-1.15-4.71-2.44-6.75-3.82-2.86-1.81-5.46-3.65-7.72-5.44-.94-.73-1.73-1.47-2.51-2.18l-.03-.03s-.08-.07-.12-.1c-.09-.07-.17-.14-.25-.21l-.28-.21-.92-.98c-.84-.78-1.68-1.66-2.55-2.67h-.1l-.37-.43c-.79-.91-1.61-1.86-2.36-2.86-1.44-1.62-2.85-3.56-4.08-5.61-4.17-6.36-7.41-13.3-9.61-20.61-.06-.19-.14-.43-.17-.72-.57-1.85-.96-3.42-1.24-4.91-.38-1.73-.7-3.43-1-5.08l-.02-.1v-.1s0-.12,0-.14l-.04-.11v-.12c-.06-.39-.11-.77-.16-1.16-.15-1.16-.31-2.35-.36-3.55-.13-.85-.19-1.69-.19-2.58-.06-1.35-.12-2.75-.12-4.15s.06-2.74.12-4.03c0-.84.06-1.67.13-2.42.13-2.11.45-4.17.76-6.13.13-1.06.33-2.13.51-3.07v-.08s.04-.07.04-.07c.02-.07.05-.14.07-.21v-.06l.03-.12c.13-.57.25-1.12.38-1.67.12-.54.25-1.09.37-1.65v-.06s.03-.06.03-.06c.03-.08.05-.17.08-.26.03-.12.07-.23.1-.33.16-.59.33-1.16.49-1.73.15-.51.29-1.03.45-1.58.34-1.12.74-2.42,1.28-3.71.8-2.21,1.76-4.52,2.96-7.05.55-1.31,1.14-2.44,1.78-3.45.47-1.05,1.04-2.06,1.71-2.98l.11-.17c.06-.12.13-.27.23-.42,1.23-1.94,2.59-4.02,4.16-6.11.84-1.22,1.59-2.18,2.38-3.02,1.61-1.94,3.25-3.75,4.86-5.36,1.17-1.17,2.73-2.7,4.49-4.18.42-.38.83-.74,1.27-1.09l-3.19-4.06-3.59-5.17.76-.67c.37-.33,3.3-2.34,5.99-4.16,1.92-1.3,2.38-3.92,1.02-5.79h0c-1.31-1.8-3.82-2.22-5.64-.95-2.68,1.88-5.75,4.07-6.29,4.54l-.87.77-3.37-4.02-3.13-4.05s-.12.11-.12.11l-.05.04c-2.83,2.23-5.49,4.63-8.15,7.35-1.23,1.23-2.4,2.46-3.58,3.77-5.95,6.57-11.06,13.77-15.22,21.4-1.22,2.31-2.47,4.7-3.53,7.13-.57,1.21-1.03,2.27-1.41,3.26l-.04.11c-.53,1.31-1.08,2.66-1.57,3.98-.54,1.44-1.07,3.01-1.73,5.08-.56,1.73-.99,3.48-1.43,5.21-.5,1.74-.88,3.54-1.23,5.25-.31,1.38-.55,2.72-.73,4.08v.07c-.26,1.31-.44,2.53-.56,3.71l-.19,1.33-.04.31c-.17,1.51-.34,2.93-.39,4.41v.04s0,.04,0,.04c-.06.55-.12,1.13-.12,1.62v.07c-.13,1.97-.19,3.96-.19,5.93v.31c0,1.66.07,3.45.12,4.88.07,1.33.13,2.43.25,3.63v.05c.14,2.21.34,4.16.62,5.95v.04c.12.96.25,1.99.44,3.07.24,1.4.5,2.85.8,4.33l.09.43c.33,1.57.68,3.19,1.12,4.74.06.15.09.28.1.38h0s.02.05.02.05l.03.13c.38,1.66.82,3.19,1.34,4.7l.02.05c.55,1.85,1.11,3.55,1.66,5.05l.07.19v.12l.02.04.21.5c.09.22.17.44.26.66.27.69.52,1.35.86,1.95l.56.99-.55.31c3.62,8.43,8.41,16.49,14.25,23.98l2,2.38c1.2,1.5,2.52,2.94,3.79,4.34l.08.09c1.09,1.15,2.22,2.35,3.35,3.41,1.32,1.32,2.45,2.37,3.58,3.33.28.24.57.49.86.73.3.25.61.51.88.75.41.35.83.65,1.23.94l.05.04c6.83,5.45,14.13,9.96,21.7,13.41l.04.02c1.27.64,2.67,1.25,4.16,1.83h.03s.03.03.03.03c1.24.58,2.58,1.07,3.89,1.55.49.18.97.36,1.45.54l4.97,1.66c.28.06.6.14.93.29.63.19,1.31.34,1.97.49l.4.09c1.92.48,5.12,1.21,7.26,1.68l.46.09c.76.15,1.47.3,2.17.4h.04s.04.01.04.01c1.59.35,2.94.56,4.23.67h.06c1.72.24,3.57.41,5.36.59l.38.04c1.54.11,3.45.25,5.29.25.25,0,.66,0,1.2.06.39,0,.83,0,1.29,0,10.26,0,20.98-1.52,30.98-4.4,10.2-3.07,19.86-7.5,28.71-13.18,5.39-3.47,9.58-6.8,12.36-9.19l-3.22-3.48-2.73,2.26c-4.18,3.47-10.37,2.89-13.85-1.28Z"/>
        <path class="cls-1" d="m1586.55,139.49c1.73-.04,3.02,1.36,3.91,2.83,1.46,2.49-1.7,6.25-6.15,7.83-2.44.86-4.34.2-5.33-2.3-1.12-2.72,3.92-7.64,7.56-8.37Z"/>
        <path class="cls-1" d="m1570.62,154.62c3.3-1.34,6.29.93,5.91,3.96-.13,1.05-.64,2.1-1.14,3.05-5.13,9.88-6.13,20.16-3.02,30.84.14.37.19.79.34,1.19.77,2.44.25,4.57-2.18,5.45-2.65.96-4.58-.38-5.42-3.01-4.61-13.7-3.22-26.83,3.72-39.41.5-.96,1.44-1.63,1.81-2.06Z"/>
      </g>
      <path class="cls-3" d="m672.49,37.68c0,2.13-.27,4.21-.77,6.18-.63,2.46-1.62,4.77-2.93,6.87-1.02,1.66-2.24,3.19-3.61,4.56-4.5,4.52-10.73,7.3-17.62,7.3h-3.72c-8.6,0-16.19-4.36-20.67-10.98-1.32-1.97-2.37-4.12-3.11-6.43-.75-2.37-1.15-4.89-1.15-7.51,0-2.78.46-5.46,1.3-7.95.79-2.34,1.91-4.52,3.33-6.49,4.5-6.34,11.92-10.48,20.3-10.48h3.72c8.76,0,16.47,4.52,20.9,11.36,1.38,2.1,2.44,4.45,3.12,6.93.59,2.11.9,4.33.9,6.62Z"/>
      <path class="cls-2" d="m174.3,9.98h0v199.85c0,49.86-30.9,83.24-89.83,83.24C31.73,293.07,0,264.23,0,208.19v-28.02h51.92v25.14c0,27.61,9.07,41.21,32.55,41.21,26.37,0,32.55-11.95,32.55-42.03V67.26c0-31.63,25.64-57.28,57.28-57.28Z"/>
      <path class="cls-2" d="m380.19,80.85v129.49c0,.09,0,.18,0,.27-.04,13.84-4.65,27.27-12.58,38.61-7.57,10.82-20.21,25.16-37.96,33.12-21.73,9.75-47.28,11.81-70.11,6.3-62.26-15.03-61.75-65.49-61.75-74.28V80.85h52.12v119.89c0,7.1.88,13.2,2.63,18.28,3.5,16.81,14.57,25,33.02,25,27.2,0,41.6-19.36,41.6-46.15v-117.03h53.04Z"/>
      <path class="cls-2" d="m402.18,379.61V80.86h26.78c13.72,0,24.91,11,25.14,24.72h0c12.77-20.6,31.73-30.08,56.45-30.08,51.1,0,87.77,40.38,87.77,108.78,0,61.4-30.9,104.66-83.24,104.66-25.14,0-44.91-10.3-60.16-31.73v69.64c0,29.13-23.61,52.74-52.74,52.74h0Zm141.75-199.03c0-36.26-18.96-61.4-45.74-61.4s-45.33,23.9-45.33,58.1c0,44.09,15.25,65.93,44.91,65.93,31.32,0,46.15-21.01,46.15-62.63Z"/>
      <rect class="cls-2" x="618.93" y="77" width="53.57" height="206.59"/>
      <path class="cls-2" d="m811.77,150.09h49.86v57.69c0,42.86-24.72,81.18-82,81.18s-82.83-37.91-82.83-81.59V26.05h52.74v50.8h112.08v37.91h-112.08v87.24c0,25.55,9.07,40.38,30.91,40.38s31.32-14.42,31.32-39.56v-52.74Z"/>
      <path class="cls-2" d="m932.5,196.24c1.65,30.49,18.96,50.27,45.33,50.27,17.31,0,32.55-8.65,36.26-22.66h55.22c-12.36,41.62-45.74,65.11-89.01,65.11-67.58,0-101.37-37.09-101.37-110.43,0-62.63,35.85-103.02,98.07-103.02s95.19,40.38,95.19,120.74h-139.69Zm84.47-33.79c-.82-30.08-20.6-44.5-41.62-44.5s-39.15,16.48-41.21,44.5h82.82Z"/>
      <path class="cls-2" d="m1090.23,284.1V77.09h50.28v24.83c17.73-27.77,38.33-24.83,60.17-24.83h7.02v49.48c-5.1,0-9.9-.25-14.85-.25-32.98,0-49.04,16.82-49.04,50.07v107.71h-53.58Z"/>
      <path class="cls-5" d="m1230.6,25.58h0c0-14.13,11.45-25.58,25.58-25.58h3.81c14.13,0,25.58,11.45,25.58,25.58h0c0,14.13-11.45,25.58-25.58,25.58h-3.81c-14.13,0-25.58-11.45-25.58-25.58Zm0,258.52V76.1h54.97v208h-54.97Z"/>
      <path class="cls-5" d="m1475.75,77.83v36.03h-105.66c-18.62,0-26.87,10.08-26.87,24.43,0,12.52,6.42,24.43,30.54,24.43h48.25c56.18,0,69.31,31.15,69.31,60.77,0,34.81-18.62,60.46-65.65,60.46h-114.82v-36.03h116.04c19.54,0,28.4-10.69,28.4-25.65,0-13.44-7.03-25.65-32.37-25.65h-47.94c-54.96,0-67.79-30.84-67.79-59.55,0-34.2,18.32-59.24,64.13-59.24h104.43Z"/>
    </g>
  </g>
</svg>