<?xml version="1.0" encoding="UTF-8"?>
<svg id="Capa_2" data-name="Capa 2" xmlns="http://www.w3.org/2000/svg" viewBox="0 0 1913.31 339.15">
  <defs>
    <style>
      .cls-1 {
        fill: #fff;
      }

      .cls-2 {
        fill: #2c1c47;
      }

      .cls-3 {
        fill: #3850fb;
      }
    </style>
  </defs>
  <g id="Capa_1-2" data-name="Capa 1">
    <g>
      <path class="cls-2" d="m158.52,3h0v181.75c0,45.34-28.11,75.7-81.69,75.7C28.86,260.45,0,234.22,0,183.25v-25.48h47.22v22.86c0,25.11,8.24,37.48,29.61,37.48,23.98,0,29.6-10.87,29.6-38.22V55.09c0-28.77,23.32-52.09,52.09-52.09Z"/>
      <path class="cls-2" d="m345.76,67.45v117.76c0,.08,0,.16,0,.25-.04,12.59-4.23,24.8-11.44,35.12-6.88,9.84-18.38,22.88-34.53,30.12-19.77,8.86-43,10.74-63.76,5.73-56.63-13.67-56.16-59.56-56.16-67.55v-121.42h47.4v109.03c0,6.45.8,12,2.39,16.63,3.18,15.29,13.25,22.74,30.03,22.74,24.73,0,37.84-17.61,37.84-41.97v-106.43h48.23Z"/>
      <path class="cls-2" d="m365.76,339.15V67.45h24.36c12.48,0,22.65,10.01,22.86,22.48h0c11.62-18.74,28.86-27.36,51.34-27.36,46.47,0,79.82,36.73,79.82,98.93,0,55.84-28.11,95.19-75.7,95.19-22.86,0-40.85-9.37-54.71-28.86v63.33c0,26.49-21.48,47.97-47.97,47.97h0Zm128.91-181c0-32.98-17.24-55.84-41.6-55.84s-41.22,21.74-41.22,52.84c0,40.1,13.87,59.96,40.85,59.96,28.48,0,41.97-19.11,41.97-56.96Z"/>
      <path class="cls-3" d="m562.88,22.66h0c0-12.52,10.15-22.66,22.67-22.66h3.37c12.52,0,22.67,10.15,22.67,22.66h0c0,12.52-10.15,22.66-22.67,22.66h-3.37c-12.52,0-22.67-10.15-22.67-22.66Z"/>
      <rect class="cls-2" x="562.88" y="67.45" width="48.72" height="184.38"/>
      <path class="cls-2" d="m738.26,130.41h45.34v52.46c0,38.97-22.48,73.83-74.57,73.83s-75.33-34.48-75.33-74.2V17.61h47.97v49.84h101.93v34.48h-101.93v75.7c0,23.23,8.25,36.72,28.11,36.72s28.48-13.12,28.48-35.98v-47.97Z"/>
      <path class="cls-2" d="m853.98,172.38c1.5,27.73,17.24,45.72,41.22,45.72,15.74,0,29.6-7.87,32.98-20.61h50.22c-11.24,37.85-41.6,59.21-80.94,59.21-61.46,0-92.19-33.73-92.19-100.43,0-56.96,32.6-93.69,89.19-93.69s86.57,36.73,86.57,109.8h-127.04Zm76.82-30.73c-.75-27.36-18.74-40.47-37.85-40.47s-35.6,14.99-37.48,40.47h75.32Z"/>
      <path class="cls-2" d="m1002.37,252.29V67.86h45.73v22.12c16.12-24.74,34.86-22.12,54.72-22.12h6.38v44.08c-4.64,0-9-.22-13.5-.22-29.99,0-44.6,14.99-44.6,44.61v95.96h-48.73Z"/>
      <path class="cls-3" d="m1266.49,155.89c-10.78-12.02-28-18.11-51.17-18.11h-28.66c-18.26,0-20.37-8.68-20.37-15.21,0-10.23,5.65-15.21,17.28-15.21h95.71v-41.36h-94.68c-19.93,0-35.25,5.33-45.53,15.84-9.38,9.59-14.14,22.95-14.14,39.7,0,20.84,8.15,55.8,62.77,55.8h28.4c19.65,0,21.92,9.27,21.92,16.24,0,10.78-6.25,16.24-18.57,16.24h-135.92v41.36h134.89c20.4,0,36.06-5.44,46.56-16.16,9.55-9.76,14.4-23.36,14.4-40.41,0-16.16-4.33-29.19-12.88-38.72Z"/>
      <polygon class="cls-3" points="1484.86 142.16 1484.86 251.46 1533.48 251.46 1533.48 142.16 1533.48 67.46 1484.86 67.46 1484.86 142.16"/>
      <path class="cls-3" d="m1418.87,142.43v31.62c0,24.4-13.12,42.04-37.89,42.04-16.8,0-26.89-7.46-30.07-22.78-1.59-4.63-2.4-10.19-2.4-16.65v-109.2h-47.47v121.61c0,8-.47,53.97,56.25,67.66,20.79,5.02,44.06,3.14,63.86-5.73,16.17-7.25,27.69-20.32,34.58-30.17,7.23-10.33,11.42-22.56,11.46-35.17,0-.08,0-.16,0-.25v-117.94h-48.31v74.97Z"/>
      <path class="cls-3" d="m1510.83,1.46h-3.33c-12.38,0-22.41,10.03-22.41,22.41s10.03,22.41,22.41,22.41h3.33c12.38,0,22.41-10.03,22.41-22.41s-10.03-22.41-22.41-22.41Z"/>
      <path class="cls-3" d="m1598.77,18.46h-47.54v163.43c0,39.37,21.17,73.54,74.66,73.54s73.92-34.54,73.92-73.17v-52h-44.94v47.54c0,22.66-8.92,35.66-28.23,35.66s-27.86-13.37-27.86-36.4v-75.03h101.03v-34.17h-101.03V18.46Z"/>
      <path class="cls-3" d="m1913.31,156.9c0,54.44-44.11,98.56-98.55,98.56-17.87,0-34.62-4.76-49.06-13.08l33.46-25.66c.14.04.27.07.41.11.72.19,1.46.35,2.21.51,2.22.48,4.47.83,6.77,1.06,0,0,.01-.01.02,0,2.04.21,4.11.32,6.2.32,3.47,0,6.86-.29,10.17-.84.48-.08.95-.16,1.41-.26,2.46-.46,4.89-1.07,7.25-1.82.09-.04.19-.07.29-.09.09-.04.19-.07.29-.11,24.57-8.1,42.37-31.16,42.64-58.44l33.22-25.47c2.14,8.04,3.28,16.49,3.28,25.2Z"/>
      <path class="cls-1" d="m1778.01,206.62l-29.87,22.9c-.07-.07-.15-.14-.22-.21l29.84-22.89c.08.07.16.13.24.2Z"/>
      <path class="cls-1" d="m1902.17,111.4l-29.62,22.47-.33.26-12.41,9.42-4.8,3.64,4.8-3.68,42.22-32.38c.05.09.09.18.14.27Z"/>
      <path class="cls-2" d="m1861.66,156.64c0,4.77-.71,9.38-2.04,13.71-4.42,14.58-15.76,26.15-30.17,30.89-.07.02-.15.05-.22.07-.07.02-.14.05-.22.07-4.02,1.28-8.27,2.04-12.68,2.18-.5.01-1,.02-1.52.02-6.35,0-12.39-1.26-17.91-3.55-1-.42-1.99-.88-2.96-1.35-.06-.03-.13-.07-.19-.1-.15-.07-.29-.14-.44-.22-.09-.05-.19-.09-.28-.14-.89-.47-1.76-.97-2.61-1.49-1.16-.71-2.29-1.47-3.38-2.28-.67-.5-1.31-1-1.94-1.53-.09-.07-.19-.15-.27-.22-.06-.05-.1-.08-.15-.12-.16-.15-.34-.29-.5-.44-.2-.16-.39-.33-.57-.49-.19-.18-.37-.34-.55-.51-.13-.12-.24-.22-.37-.34-.32-.32-.64-.62-.96-.93-2.47-2.49-4.67-5.24-6.53-8.21-.09-.15-.19-.3-.28-.47-.2-.31-.4-.64-.58-.97-.07-.13-.14-.25-.21-.37-.04-.07-.08-.14-.12-.21-.04-.06-.07-.13-.11-.19-.02-.05-.05-.08-.07-.13-.01-.01-.02-.04-.02-.05-.02-.05-.05-.08-.07-.12-.07-.14-.15-.28-.22-.42-.05-.09-.1-.2-.16-.3-.05-.1-.11-.21-.15-.3-.1-.21-.21-.42-.32-.63-.05-.09-.1-.2-.15-.3-.02-.05-.05-.1-.07-.15-.07-.15-.15-.3-.22-.46-.05-.1-.09-.21-.14-.31-.02-.05-.05-.09-.07-.15-.14-.3-.28-.62-.41-.93-.05-.09-.09-.2-.13-.3-.05-.11-.09-.21-.13-.32-.05-.1-.09-.21-.13-.32-.09-.21-.18-.42-.26-.64-.03-.1-.08-.21-.12-.31-.05-.11-.08-.21-.12-.32-.16-.43-.32-.86-.45-1.3-.05-.14-.09-.29-.14-.43-.05-.15-.09-.29-.14-.44-.02-.07-.05-.14-.07-.22l-.07-.21c-.05-.15-.08-.3-.13-.44-.02-.08-.05-.15-.06-.22-.04-.12-.07-.22-.11-.34-.02-.12-.06-.22-.08-.34-.02-.05-.04-.11-.05-.16-.03-.12-.06-.22-.09-.34-.01-.06-.02-.11-.04-.16-.11-.41-.2-.81-.29-1.21-.02-.12-.06-.23-.08-.35-.01-.06-.02-.12-.03-.17-.02-.12-.05-.23-.07-.35-.02-.12-.05-.23-.07-.35-.02-.12-.05-.23-.07-.35-.04-.17-.07-.35-.09-.53-.02-.12-.05-.23-.06-.36-.15-.89-.28-1.77-.37-2.67-.02-.19-.05-.36-.06-.55-.01-.06-.01-.12-.02-.18-.01-.13-.02-.25-.02-.36-.07-.74-.12-1.46-.14-2.19-.02-.62-.04-1.24-.04-1.86,0-1.46.07-2.92.2-4.34.02-.21.04-.41.06-.62.02-.26.06-.51.09-.77.01-.16.03-.34.06-.5.02-.18.05-.34.07-.51.01-.08.02-.18.05-.26.02-.16.05-.34.07-.5.05-.26.08-.5.13-.76.02-.09.03-.19.06-.29.04-.19.07-.37.11-.57.04-.14.06-.28.09-.42.02-.15.06-.29.08-.43l.11-.42c.09-.43.2-.85.3-1.27.07-.28.14-.56.22-.83.02-.07.04-.14.06-.21.04-.14.08-.28.12-.42.02-.07.05-.14.06-.21.04-.08.06-.17.09-.27.02-.09.05-.19.08-.28.06-.18.12-.36.17-.55.02-.08.06-.17.08-.27.04-.09.07-.18.09-.27.02-.07.05-.14.07-.21.05-.13.09-.27.14-.4.02-.07.05-.14.07-.21.04-.08.07-.18.1-.27.06-.18.13-.35.2-.53.07-.19.14-.36.2-.54.07-.17.14-.35.22-.53.28-.71.58-1.4.91-2.09.08-.16.16-.34.24-.51.04-.08.08-.16.12-.25.03-.07.06-.13.09-.2.09-.19.19-.37.29-.57.06-.12.13-.25.19-.37.07-.13.14-.25.2-.37.14-.24.27-.49.41-.75.09-.16.19-.33.28-.49.05-.08.09-.16.14-.24.04-.06.07-.12.11-.18.12-.19.22-.36.33-.55.15-.23.3-.48.44-.71.06-.08.11-.16.15-.24.41-.62.82-1.23,1.25-1.83.03-.06.08-.13.13-.19.09-.13.19-.26.28-.38.05-.07.09-.13.14-.2.07-.08.13-.16.19-.24.13-.16.24-.32.36-.48.19-.23.36-.47.55-.69.32-.39.63-.77.94-1.14.38-.45.78-.89,1.18-1.33.14-.15.28-.3.43-.46.07-.08.14-.15.21-.23.08-.07.15-.15.22-.22.15-.15.29-.3.44-.46,2.31-2.31,4.86-4.38,7.62-6.16.15-.11.32-.21.47-.3.16-.11.33-.2.48-.3.16-.09.33-.2.49-.29.08-.05.15-.09.23-.14.24-.15.49-.29.74-.43.16-.09.33-.18.49-.27.08-.05.16-.09.26-.14.16-.09.33-.18.49-.27.08-.03.18-.08.26-.13.16-.08.33-.18.5-.26.08-.05.16-.08.26-.13.24-.13.5-.24.76-.37.32-.15.64-.29.97-.44.11-.05.21-.09.33-.14.43-.19.86-.37,1.31-.55.09-.04.18-.07.27-.11.18-.07.35-.14.53-.21.09-.03.19-.07.27-.1.07-.02.14-.05.2-.07.21-.07.41-.14.61-.22.09-.02.19-.06.27-.09.14-.05.28-.09.41-.14.14-.04.28-.08.41-.13.19-.06.36-.12.55-.18.07-.02.14-.05.21-.06.13-.05.27-.09.41-.13.07-.02.14-.05.21-.06.09-.03.19-.06.28-.08.46-.13.92-.26,1.39-.37.37-.09.75-.19,1.13-.27.19-.05.37-.08.56-.13.09-.01.19-.03.29-.06.19-.04.37-.07.57-.11.28-.06.57-.12.85-.16,2.6-.44,5.26-.68,7.98-.68h.54c.07,0,.14,0,.21.01h.36c.15,0,.3.01.46.01h.05c.08.01.16.01.25.01s.15.01.22.01h.1c.07.01.13.01.2.01.16.01.31.02.48.02.01.01.02.01.04.01h.04c.06,0,.13.01.19.01.07,0,.15.01.22.01.02,0,.05,0,.06.01.09,0,.18.01.26.01.06.01.12.01.18.01.01,0,.02.01.03.01.08,0,.15.01.23.01.13.01.26.02.38.04.02,0,.05.01.07.01.06,0,.13.01.19.01.16.02.34.03.5.06.06.01.12.01.17.02.06,0,.12.01.16.01.07.01.13.02.2.02l.21.04h.06c.06.01.11.02.16.02.05.01.09.01.15.02.01,0,.02,0,.05.01.05,0,.09.01.14.01.04.01.07.01.12.02.05,0,.1.01.16.02h.01l.18.02s.1.01.15.02c.02,0,.04.01.05.01.07.01.13.01.2.02.01.01.02.01.05.01.06.01.12.02.18.03.41.06.82.13,1.21.21.06.01.1.02.16.04.05.01.1.02.15.02.06.01.1.02.16.04.17.04.35.07.54.12.05.01.11.02.15.04.07.01.13.02.2.03.04.01.07.02.12.04.05.01.09.01.14.02.13.03.27.07.41.1.06.01.1.02.15.04.11.02.2.05.29.07.07.01.13.03.19.05.07.02.14.04.21.06h.02c.06.01.12.04.16.05.04.01.08.02.12.02.1.04.2.06.3.09.07.01.14.04.21.06h.01c.07.02.15.04.22.06.08.02.15.05.23.07.07.02.15.05.22.07.1.02.21.06.32.09.09.02.19.05.28.08.09.02.19.06.28.09.14.03.29.08.43.13.06.02.12.05.18.06.12.05.22.08.33.12.07.02.14.05.2.07.05.01.09.02.14.05.06.02.12.04.18.06.02.01.05.01.07.02.06.02.12.05.18.07.07.02.13.05.2.07.08.02.18.06.26.09.06.02.12.05.18.06.14.06.29.12.44.18.06.02.12.05.18.07.07.02.14.06.21.08.07.02.14.06.21.08.13.06.27.12.4.16.35.15.69.29,1.03.44.06.02.13.06.19.08t.02.01c.07.03.13.06.2.09.05.02.09.03.14.06.13.06.26.13.39.19.05.02.09.05.15.07.05.02.11.05.15.07.06.02.1.06.16.08h.01c.06.04.12.06.18.09.08.03.17.08.26.13.06.02.1.05.15.07.07.04.13.07.2.09,0,.01.01.01.01.01.07.03.13.07.19.09.19.11.38.2.57.3.05.02.09.05.14.08.58.3,1.17.63,1.73.97.05.02.08.05.13.07.01.01.02.01.02.02.06.03.12.07.18.1.05.02.09.05.14.08.05.02.08.05.13.08.02.01.05.02.07.03.05.04.08.06.12.08.05.02.1.06.15.08.05.04.09.07.15.09.05.03.09.07.14.09.05.03.09.07.15.09.06.05.12.08.17.12.61.4,1.21.81,1.8,1.23l-31.35,23.85c-6.7,5.1-7.99,14.65-2.91,21.35,5.1,6.7,14.65,7.99,21.35,2.89l26.08-19.79,4.8-3.64c.66,2.3,1.17,4.68,1.47,7.12.26,1.96.38,3.96.38,5.99Z"/>
      <polygon class="cls-2" points="1859.8 143.51 1859.8 143.54 1855.01 147.18 1859.8 143.51"/>
      <path class="cls-3" d="m1814.76,58.35c-54.44,0-98.56,44.12-98.56,98.55,0,28.65,12.23,54.41,31.72,72.42l29.84-22.89c-.79-.58-1.56-1.2-2.32-1.82-.12-.1-.25-.2-.36-.3-.06-.05-.13-.1-.19-.16-.23-.19-.46-.37-.68-.57-.24-.22-.5-.44-.75-.66-.25-.22-.49-.44-.74-.67-.16-.15-.33-.3-.49-.46-.42-.41-.85-.82-1.26-1.24-3.28-3.28-6.18-6.93-8.65-10.87-.13-.2-.26-.4-.38-.61-.26-.42-.51-.85-.76-1.28-.1-.16-.2-.33-.29-.5-.05-.09-.1-.19-.15-.28-.05-.08-.09-.16-.14-.25-.03-.06-.06-.11-.09-.16-.01-.02-.02-.05-.04-.07-.02-.05-.06-.1-.08-.16-.1-.17-.2-.35-.29-.54-.07-.14-.15-.27-.22-.41-.07-.14-.14-.27-.21-.41-.14-.27-.28-.55-.41-.83-.07-.13-.14-.27-.2-.4-.04-.07-.07-.14-.09-.2-.1-.21-.2-.41-.29-.61-.06-.14-.13-.28-.19-.41-.04-.07-.06-.14-.09-.21-.19-.41-.36-.82-.55-1.23-.06-.14-.12-.28-.18-.42-.05-.14-.1-.28-.16-.42-.06-.13-.12-.27-.17-.41-.11-.28-.22-.56-.33-.84-.06-.14-.11-.28-.16-.42-.05-.14-.1-.28-.15-.43-.21-.56-.41-1.13-.6-1.7-.07-.19-.13-.39-.2-.57-.06-.2-.12-.39-.18-.58-.04-.09-.07-.2-.09-.29-.03-.09-.06-.2-.09-.29-.06-.2-.12-.4-.18-.58-.02-.11-.06-.2-.08-.29-.05-.15-.08-.3-.13-.44-.04-.15-.07-.3-.12-.44-.02-.08-.03-.15-.06-.22-.04-.15-.08-.3-.12-.46-.02-.07-.04-.14-.06-.22-.13-.53-.26-1.06-.38-1.6-.04-.15-.06-.3-.09-.46-.02-.08-.04-.16-.06-.23-.02-.15-.06-.32-.09-.47-.03-.15-.06-.3-.09-.47-.02-.15-.06-.3-.08-.47-.05-.23-.09-.47-.13-.7-.03-.15-.06-.3-.08-.47-.2-1.17-.36-2.36-.5-3.55-.02-.23-.05-.48-.07-.71-.01-.08-.01-.16-.02-.25-.01-.16-.02-.31-.05-.48-.08-.97-.14-1.93-.17-2.91-.04-.81-.05-1.62-.05-2.45,0-1.94.09-3.85.27-5.75.02-.27.05-.54.07-.81.03-.34.08-.68.12-1.02.04-.23.06-.45.09-.68.02-.23.06-.46.09-.68.01-.12.03-.22.05-.34.03-.22.07-.44.1-.68.06-.33.12-.67.18-.99.02-.13.05-.26.07-.38.05-.26.09-.5.14-.76.04-.19.08-.37.12-.56.03-.2.08-.39.12-.57.05-.19.08-.37.13-.56.13-.56.26-1.12.41-1.68.09-.36.19-.74.29-1.1.02-.09.05-.19.08-.28.05-.19.1-.36.15-.55.04-.09.06-.19.08-.28.04-.12.07-.23.12-.36.03-.12.07-.25.1-.36.08-.24.15-.48.23-.72.04-.12.08-.24.12-.36.04-.12.08-.24.12-.36.03-.08.07-.17.09-.27.06-.18.13-.35.19-.54.04-.08.07-.17.09-.27.05-.12.09-.23.13-.35.09-.23.18-.48.27-.71.09-.23.19-.47.27-.7.09-.23.19-.47.29-.7.37-.93.78-1.86,1.2-2.75.11-.23.21-.46.32-.68.06-.12.12-.23.17-.34.04-.09.08-.17.12-.26.13-.26.26-.5.39-.76.08-.16.16-.33.26-.49.08-.16.17-.34.26-.5.17-.33.36-.65.54-.98.13-.22.24-.43.37-.65.06-.1.13-.21.19-.31l.14-.25c.14-.25.29-.48.43-.72.2-.32.4-.63.6-.95.06-.11.13-.21.2-.32.53-.83,1.07-1.63,1.63-2.43.07-.09.13-.18.19-.26.12-.18.24-.34.37-.51l.17-.25c.09-.12.18-.23.26-.34.15-.21.31-.42.48-.63.23-.3.48-.62.72-.92.41-.5.82-1,1.25-1.5.5-.6,1.03-1.18,1.55-1.75.2-.21.38-.41.57-.62.1-.09.2-.2.29-.29.09-.11.2-.21.29-.3.19-.2.38-.4.58-.6,3.06-3.06,6.44-5.8,10.08-8.17.21-.14.42-.27.63-.4.21-.14.42-.27.63-.4.21-.13.42-.27.64-.4.1-.06.21-.12.31-.19.33-.19.64-.37.97-.56.22-.13.43-.24.65-.36.11-.06.22-.12.33-.19.22-.12.44-.23.67-.35.1-.06.22-.12.33-.18.22-.12.44-.22.66-.34.12-.06.22-.12.34-.16.34-.18.68-.34,1.02-.49.42-.21.84-.41,1.27-.6.15-.06.29-.13.43-.19.57-.26,1.16-.5,1.74-.73.12-.05.23-.09.35-.14.23-.09.47-.17.7-.27.12-.05.23-.09.36-.13.08-.04.17-.07.26-.11.27-.09.54-.19.8-.29.12-.03.23-.08.36-.12.18-.07.35-.13.54-.19.18-.06.36-.12.54-.17.24-.08.48-.16.72-.23.09-.02.19-.06.27-.08.19-.06.37-.12.55-.16.09-.03.19-.06.28-.08.12-.04.24-.07.36-.11.62-.18,1.23-.34,1.84-.49.5-.13.99-.25,1.49-.36.26-.06.5-.11.76-.16.12-.02.24-.05.37-.08.25-.05.5-.09.76-.14.37-.08.76-.15,1.13-.21,3.44-.6,6.97-.9,10.57-.9h.99c.07.01.14.01.21.01h.27c.2.01.38.01.58.02h.08c.1,0,.21.01.32.01s.2.01.3.01h.13c.08.01.18.01.27.02.21,0,.42.01.63.04h.05c.09,0,.2.01.29.01.1.01.2.02.29.02.04,0,.06,0,.08.01.12,0,.23.01.34.02.08,0,.16.01.23.01.01.01.02.01.05.01.09,0,.2.01.3.02.16.01.34.03.5.05.04,0,.07,0,.1.01.08,0,.16.01.25.02.22.02.44.05.66.07.08.01.15.01.23.02.07.01.14.02.22.02l.25.04c.09.01.19.02.28.03.04,0,.06.01.09.01.07.01.13.02.2.02.07.01.14.02.21.03h.06c.06.01.13.02.19.04.05,0,.11.01.15.01.07.01.15.02.22.03t.02.01l.22.02c.07.01.14.02.21.03.02,0,.04.01.06.01.08.01.18.02.26.04.02.01.04.01.06.01.08.01.16.02.24.05.54.08,1.07.17,1.61.28.07.01.13.03.2.05l.21.04c.07.01.14.03.21.05.23.05.48.09.71.15.07.01.14.02.21.05.08.01.16.04.26.05.05.01.09.02.15.03.06.01.12.04.18.05.19.03.37.08.56.13.07.01.13.03.2.05.13.04.26.07.38.09.08.02.16.05.25.07.09.02.19.05.28.07h.03c.07.02.14.05.21.06.06.01.1.04.15.05.14.03.27.07.41.1.09.02.19.06.28.08h.01c.09.02.2.06.29.08.1.04.2.06.3.09.1.02.2.06.3.08.14.05.27.08.41.13.13.03.26.07.37.12.13.04.24.07.37.12.19.06.37.12.56.17.08.02.16.06.24.08.14.05.29.09.43.15.09.02.17.06.27.08.06.02.12.05.17.07.08.02.16.05.23.08.04.01.06.01.08.02.08.03.16.06.24.09.09.02.18.06.26.09.12.03.23.08.35.13.07.02.14.05.22.08.2.07.4.15.59.22.08.04.15.07.23.09.09.03.18.07.27.12.09.04.19.07.28.11.17.07.35.14.52.22.45.19.91.38,1.36.58.08.03.16.07.23.1.02,0,.03.01.05.01.08.05.16.08.26.12.06.04.12.06.19.09.16.07.34.15.5.23.07.04.14.06.2.09.07.03.14.07.21.1.07.04.14.06.21.09t.02.01c.08.03.15.08.23.12.12.06.22.12.34.16.07.04.14.07.2.11.09.05.18.08.26.13.01,0,.02.01.02.01.08.05.16.08.24.13.26.13.5.26.75.39.07.03.14.07.2.1.77.42,1.54.85,2.29,1.3.06.04.12.06.16.09.01.01.02.02.03.02.08.05.15.09.23.14.06.03.12.07.19.1.06.04.11.07.16.11.04.02.07.05.1.06.05.04.09.07.15.11.06.03.13.07.19.12.07.04.14.08.2.13.07.04.13.07.19.12.07.03.14.08.21.13.08.05.15.11.23.15,1.02.65,2.01,1.34,2.98,2.05.07.05.14.09.21.14.18.14.35.27.53.4.07.05.13.11.2.15.06.05.1.08.15.12.07.06.14.1.2.15h.01c.07.06.14.12.2.16.55.42,1.07.85,1.61,1.3l-12.44,9.46-31.35,23.85c-6.7,5.1-7.99,14.65-2.91,21.35,5.1,6.7,14.65,7.99,21.35,2.89l26.08-19.79,4.8-3.68,42.22-32.38c-16.49-31.38-49.36-52.78-87.27-52.78Zm-62.34,56.9c-.23,1.89-1.14,3.79-2.05,5.5-9.25,17.84-11.05,36.37-5.46,55.64.26.68.36,1.42.63,2.16,1.31,4.13.56,7.81-3.24,9.53-.21.12-.44.2-.71.29-4.78,1.73-8.26-.67-9.78-5.44-8.33-24.71-5.82-48.41,6.7-71.12.91-1.73,2.61-2.93,3.27-3.72,5.06-2.03,9.68.6,10.57,4.77.16.75.19,1.56.08,2.39Zm14.06-15.23c-2,.71-3.79.85-5.33.35-1.87-.55-3.33-2.02-4.27-4.49-2.04-4.9,7.06-13.78,13.64-15.09,2.79-.08,4.98,1.98,6.55,4.32.18.26.34.54.49.79,2.65,4.48-3.06,11.27-11.07,14.12Z"/>
      <path class="cls-1" d="m1752.42,115.25c-.23,1.89-1.14,3.79-2.05,5.5-9.25,17.84-11.05,36.37-5.46,55.64.26.68.36,1.42.63,2.16,1.31,4.13.56,7.81-3.24,9.53-.21.12-.44.2-.71.29-4.78,1.73-8.26-.67-9.78-5.44-8.33-24.71-5.82-48.41,6.7-71.12.91-1.73,2.61-2.93,3.27-3.72,5.06-2.03,9.68.6,10.57,4.77.16.75.19,1.56.08,2.39Z"/>
      <path class="cls-1" d="m1766.48,100.02c-2,.71-3.79.85-5.33.35-1.87-.55-3.33-2.02-4.27-4.49-2.04-4.9,7.06-13.78,13.64-15.09,2.79-.08,4.98,1.98,6.55,4.32.18.26.34.54.49.79,2.65,4.48-3.06,11.27-11.07,14.12Z"/>
      <path class="cls-3" d="m1777.76,206.42c.08.07.16.13.24.2l-29.87,22.9c-.07-.07-.15-.14-.22-.21l29.84-22.89Z"/>
      <path class="cls-3" d="m1902.17,111.4l-29.62,22.47-.33.26-12.41,9.42-4.8,3.64,4.8-3.68,42.22-32.38c.05.09.09.18.14.27Z"/>
    </g>
  </g>
</svg>