<svg width="21" height="18" viewBox="0 0 21 18" fill="none" xmlns="http://www.w3.org/2000/svg">
<path d="M8.05322 0C6.9853 0 5.96111 0.421427 5.20598 1.17157C4.45084 1.92172 4.02661 2.93913 4.02661 4C4.02661 5.06087 4.45084 6.07828 5.20598 6.82843C5.96111 7.57857 6.9853 8 8.05322 8C9.12115 8 10.1453 7.57857 10.9005 6.82843C11.6556 6.07828 12.0798 5.06087 12.0798 4C12.0798 2.93913 11.6556 1.92172 10.9005 1.17157C10.1453 0.421427 9.12115 0 8.05322 0ZM15.0998 8C14.9689 8 14.8582 8.09 14.8381 8.21L14.6468 9.53C14.3448 9.66 14.0529 9.82 13.7911 10L12.5429 9.5C12.4322 9.5 12.3013 9.5 12.2308 9.63L11.2242 11.36C11.1638 11.47 11.1839 11.6 11.2846 11.68L12.3516 12.5C12.3315 12.67 12.3214 12.83 12.3214 13C12.3214 13.17 12.3315 13.33 12.3516 13.5L11.2846 14.32C11.194 14.4 11.1638 14.53 11.2242 14.64L12.2308 16.37C12.2912 16.5 12.4221 16.5 12.5429 16.5L13.7911 16C14.0529 16.18 14.3347 16.35 14.6468 16.47L14.8381 17.79C14.8582 17.91 14.9589 18 15.0998 18H17.1131C17.2238 18 17.3346 17.91 17.3547 17.79L17.546 16.47C17.848 16.34 18.1197 16.18 18.3915 16L19.6297 16.5C19.7606 16.5 19.8915 16.5 19.9619 16.37L20.9686 14.64C21.029 14.53 20.9988 14.4 20.9082 14.32L19.8311 13.5C19.8512 13.33 19.8713 13.17 19.8713 13C19.8713 12.83 19.8613 12.67 19.8311 12.5L20.8981 11.68C20.9887 11.6 21.0189 11.47 20.9585 11.36L19.9519 9.63C19.8915 9.5 19.7606 9.5 19.6297 9.5L18.3915 10C18.1197 9.82 17.848 9.65 17.5359 9.53L17.3446 8.21C17.3346 8.09 17.2238 8 17.1131 8H15.0998ZM8.05322 10C3.60382 10 0 11.79 0 14V16H9.7444C9.29513 15.0628 9.06131 14.038 9.05987 13C9.06192 11.9953 9.28165 11.0028 9.70413 10.09C9.17061 10.03 8.61695 10 8.05322 10ZM16.1064 11.5C16.942 11.5 17.6164 12.17 17.6164 13C17.6164 13.83 16.942 14.5 16.1064 14.5C15.2609 14.5 14.5965 13.83 14.5965 13C14.5965 12.17 15.2709 11.5 16.1064 11.5Z" fill="black"/>
</svg>
