<svg width="20" height="13" viewBox="0 0 20 13" fill="none" xmlns="http://www.w3.org/2000/svg">
<path id="Vector" d="M5.83333 6.5C7.66667 6.5 9.16667 5.0375 9.16667 3.25C9.16667 1.4625 7.66667 0 5.83333 0C4 0 2.5 1.4625 2.5 3.25C2.5 5.0375 4 6.5 5.83333 6.5ZM9.16667 13V8.69375C8.25 8.36875 7.08333 8.125 5.83333 8.125C2.58333 8.125 0 9.5875 0 11.375V13H9.16667ZM18.3333 0H12.5C11.5833 0 10.8333 0.73125 10.8333 1.625V11.375C10.8333 12.2688 11.5833 13 12.5 13H18.3333C19.25 13 20 12.2688 20 11.375V1.625C20 0.73125 19.25 0 18.3333 0ZM15 11.375H13.3333V1.625H15V11.375Z" fill="#2C1C47"/>
</svg>
