<svg width="17" height="17" viewBox="0 0 17 17" fill="none" xmlns="http://www.w3.org/2000/svg">
<path d="M11.1095 7.8625L10.3445 8.6445C9.7325 9.2565 9.35 9.775 9.35 11.05H7.65V10.625C7.65 9.6815 8.0325 8.8315 8.6445 8.2195L9.6985 7.1485C10.013 6.8425 10.2 6.4175 10.2 5.95C10.2 5.0065 9.435 4.25 8.5 4.25C8.04913 4.25 7.61673 4.42911 7.29792 4.74792C6.97911 5.06673 6.8 5.49913 6.8 5.95H5.1C5.1 5.04826 5.45821 4.18346 6.09584 3.54584C6.73346 2.90821 7.59826 2.55 8.5 2.55C9.40174 2.55 10.2665 2.90821 10.9042 3.54584C11.5418 4.18346 11.9 5.04826 11.9 5.95C11.9 6.698 11.594 7.3695 11.1095 7.8625ZM9.35 14.45H7.65V12.75H9.35M8.5 0C7.38376 0 6.27846 0.219859 5.24719 0.647024C4.21592 1.07419 3.27889 1.70029 2.48959 2.48959C0.895533 4.08365 0 6.24566 0 8.5C0 10.7543 0.895533 12.9163 2.48959 14.5104C3.27889 15.2997 4.21592 15.9258 5.24719 16.353C6.27846 16.7801 7.38376 17 8.5 17C10.7543 17 12.9163 16.1045 14.5104 14.5104C16.1045 12.9163 17 10.7543 17 8.5C17 3.7995 13.175 0 8.5 0Z" fill="black"/>
</svg>
