<svg width="21" height="20" viewBox="0 0 21 20" fill="none" xmlns="http://www.w3.org/2000/svg">
<g id="Icon">
<g id="Icon/World">
<path id="Shape" fill-rule="evenodd" clip-rule="evenodd" d="M1.71484 9.99984C1.71484 5.39984 5.54627 1.6665 10.2777 1.6665C15.0177 1.6665 18.8577 5.39984 18.8577 9.99984C18.8577 14.5998 15.0177 18.3332 10.2777 18.3332C5.54627 18.3332 1.71484 14.5998 1.71484 9.99984ZM13.6891 6.6665H16.2177C15.3948 5.2915 14.0834 4.22484 12.5063 3.69984C13.0206 4.62484 13.4148 5.62484 13.6891 6.6665ZM10.2863 3.3665C10.9977 4.3665 11.5548 5.47484 11.9234 6.6665H8.64913C9.0177 5.47484 9.57484 4.3665 10.2863 3.3665ZM3.42913 9.99984C3.42913 10.5748 3.51484 11.1332 3.65199 11.6665H6.54913C6.48056 11.1165 6.42913 10.5665 6.42913 9.99984C6.42913 9.43317 6.48056 8.88317 6.54913 8.33317H3.65199C3.51484 8.8665 3.42913 9.42484 3.42913 9.99984ZM4.35484 13.3332H6.88341C7.1577 14.3748 7.55199 15.3748 8.06627 16.2998C6.48913 15.7748 5.1777 14.7165 4.35484 13.3332ZM4.35484 6.6665H6.88341C7.1577 5.62484 7.55199 4.62484 8.06627 3.69984C6.48913 4.22484 5.1777 5.28317 4.35484 6.6665ZM10.2863 16.6332C9.57484 15.6332 9.0177 14.5248 8.64913 13.3332H11.9234C11.5548 14.5248 10.9977 15.6332 10.2863 16.6332ZM8.14341 9.99984C8.14341 10.5665 8.20341 11.1165 8.28056 11.6665H12.292C12.3691 11.1165 12.4291 10.5665 12.4291 9.99984C12.4291 9.43317 12.3691 8.87484 12.292 8.33317H8.28056C8.20341 8.87484 8.14341 9.43317 8.14341 9.99984ZM12.5063 16.2998C13.0206 15.3748 13.4148 14.3748 13.6891 13.3332H16.2177C15.3948 14.7082 14.0834 15.7748 12.5063 16.2998ZM14.1434 9.99984C14.1434 10.5665 14.092 11.1165 14.0234 11.6665H16.9206C17.0577 11.1332 17.1434 10.5748 17.1434 9.99984C17.1434 9.42484 17.0577 8.8665 16.9206 8.33317H14.0234C14.092 8.88317 14.1434 9.43317 14.1434 9.99984Z" fill="#3850FB"/>
</g>
</g>
</svg>
