<svg width="15" height="17" viewBox="0 0 15 17" fill="none" xmlns="http://www.w3.org/2000/svg">
<path d="M5.83333 12.75V10.2H0V6.8H5.83333V4.25L10 8.5L5.83333 12.75ZM5.83333 0H13.3333C13.7754 0 14.1993 0.179107 14.5118 0.497918C14.8244 0.81673 15 1.24913 15 1.7V15.3C15 15.7509 14.8244 16.1833 14.5118 16.5021C14.1993 16.8209 13.7754 17 13.3333 17H5.83333C5.39131 17 4.96738 16.8209 4.65482 16.5021C4.34226 16.1833 4.16667 15.7509 4.16667 15.3V13.6H5.83333V15.3H13.3333V1.7H5.83333V3.4H4.16667V1.7C4.16667 1.24913 4.34226 0.81673 4.65482 0.497918C4.96738 0.179107 5.39131 0 5.83333 0Z" fill="black"/>
</svg>
