<svg width="77" height="42" viewBox="0 0 77 42" fill="none" xmlns="http://www.w3.org/2000/svg">
<path d="M70.5833 0H28.875C25.3458 0 22.4583 2.90769 22.4583 6.46154V35.5385C22.4583 39.1246 25.3458 42 28.875 42H70.5833C74.1446 42 77 39.1246 77 35.5385V6.46154C77 2.90769 74.1446 0 70.5833 0ZM70.5833 35.5385H28.875V11.8569L49.7292 22.6154L70.5833 11.8569V35.5385ZM49.7292 17.1554L28.875 6.46154H70.5833L49.7292 17.1554ZM16.0417 35.5385C16.0417 36.0877 16.1379 36.6046 16.2021 37.1538H3.20833C1.43733 37.1538 0 35.7 0 33.9231C0 32.1462 1.43733 30.6923 3.20833 30.6923H16.0417V35.5385ZM9.625 4.84615H16.2021C16.1379 5.39538 16.0417 5.91231 16.0417 6.46154V11.3077H9.625C7.86042 11.3077 6.41667 9.85385 6.41667 8.07692C6.41667 6.3 7.86042 4.84615 9.625 4.84615ZM3.20833 21C3.20833 19.2231 4.65208 17.7692 6.41667 17.7692H16.0417V24.2308H6.41667C4.65208 24.2308 3.20833 22.7769 3.20833 21Z" fill="#3850FB"/>
</svg>
