<svg width="14" height="17" viewBox="0 0 14 17" fill="none" xmlns="http://www.w3.org/2000/svg">
<path id="Vector" d="M7 9.71429C5.9686 9.71429 4.97945 9.28784 4.25014 8.52877C3.52083 7.76969 3.11111 6.74016 3.11111 5.66667H4.66667C4.66667 6.31076 4.9125 6.92848 5.35008 7.38393C5.78767 7.83937 6.38116 8.09524 7 8.09524C7.61884 8.09524 8.21233 7.83937 8.64992 7.38393C9.0875 6.92848 9.33333 6.31076 9.33333 5.66667H10.8889C10.8889 6.74016 10.4792 7.76969 9.74986 8.52877C9.02055 9.28784 8.0314 9.71429 7 9.71429ZM7 1.61905C7.61884 1.61905 8.21233 1.87491 8.64992 2.33036C9.0875 2.78581 9.33333 3.40352 9.33333 4.04762H4.66667C4.66667 3.40352 4.9125 2.78581 5.35008 2.33036C5.78767 1.87491 6.38116 1.61905 7 1.61905ZM12.4444 4.04762H10.8889C10.8889 3.51608 10.7883 2.98974 10.5929 2.49866C10.3974 2.00758 10.111 1.56138 9.74986 1.18552C9.38874 0.809664 8.96004 0.511519 8.48821 0.308107C8.01639 0.104695 7.5107 0 7 0C5.9686 0 4.97945 0.426444 4.25014 1.18552C3.52083 1.9446 3.11111 2.97412 3.11111 4.04762H1.55556C0.692222 4.04762 0 4.7681 0 5.66667V15.381C0 15.8104 0.163888 16.2222 0.455612 16.5258C0.747335 16.8294 1.143 17 1.55556 17H12.4444C12.857 17 13.2527 16.8294 13.5444 16.5258C13.8361 16.2222 14 15.8104 14 15.381V5.66667C14 4.7681 13.3 4.04762 12.4444 4.04762Z" fill="#2C1C47"/>
</svg>
